# xmcd CD database file
#
# Track frame offsets:
#	150
#	30734
#	64146
#	102070
#	133089
#	172538
#	203542
#	218043
#	234891
#	256115
#	277096
#	299782
#
# Disc length: 4261 seconds
#
# Revision: 0
# Processed by: cddbd v1.5.2PL0 Copyright (c) Steve Scherf et al.
# Submitted via: CDex 1.70beta2
#
DISCID=a810a30c
DTITLE=Milt Jackson - bags of soul - 4 minor conception
DYEAR=2007
DGENRE=Jazz
TTITLE0=Milt Jackson Quintet - Angel Face
TTITLE1=Milt Jackson Quintet - Sometimes I'm Happy
TTITLE2=Milt Jackson Quartet - Now's The Time
TTITLE3=Milt Jackson Quintet - Ellington Medley
TTITLE4=Milt Jackson Quintet - Minor Conception
TTITLE5=Milt Jackson Quintet - Soul in 3/4
TTITLE6=Milt Jackson Ensemble - So In Love
TTITLE7=Milt Jackson Ensemble - They Didn't Believe Me
TTITLE8=Milt Jackson Ensemble - Solitude
TTITLE9=Milt Jackson Quartet - The Song Is Ended
TTITLE10=Milt Jackson Quartet - Gerry's Blues
TTITLE11=Milt Jackson Quartet - These Foolish Things
EXTD=YEAR: 2007
EXTT0=
EXTT1=
EXTT2=
EXTT3=
EXTT4=
EXTT5=
EXTT6=
EXTT7=
EXTT8=
EXTT9=
EXTT10=
EXTT11=
PLAYORDER=
